<svg width="14" height="14" viewBox="0 0 14 14" fill="none" xmlns="http://www.w3.org/2000/svg">
<path d="M13.5 5.79249C13.5004 5.66112 13.4747 5.53097 13.4244 5.40962C13.3741 5.28827 13.3001 5.17813 13.2069 5.08561L8.91435 0.792486C8.82149 0.699603 8.71124 0.625923 8.5899 0.575654C8.46856 0.525385 8.33851 0.499512 8.20717 0.499512C8.07582 0.499512 7.94577 0.525385 7.82443 0.575654C7.70309 0.625923 7.59284 0.699603 7.49998 0.792486L5.7231 2.56936L2.0981 3.92999C1.93336 3.99143 1.78764 4.09507 1.67554 4.23053C1.56344 4.36599 1.48889 4.52853 1.45935 4.70186L0.00685325 13.4175C-0.00513236 13.4891 -0.00136347 13.5625 0.0178978 13.6326C0.037159 13.7026 0.0714499 13.7676 0.118385 13.823C0.165319 13.8785 0.22377 13.923 0.289671 13.9536C0.355571 13.9842 0.427338 14 0.499978 14C0.527616 13.9999 0.555202 13.9976 0.582478 13.9931L9.29748 12.5406C9.4706 12.5117 9.63307 12.4378 9.76856 12.3262C9.90406 12.2146 10.0078 12.0694 10.0694 11.905L11.43 8.27999L13.2069 6.49999C13.3002 6.40737 13.3741 6.29713 13.4245 6.17567C13.4748 6.05421 13.5004 5.92396 13.5 5.79249ZM9.1331 11.5544L1.95748 12.75L4.9181 9.78936C5.28788 9.98921 5.71724 10.0493 6.12767 9.95861C6.53811 9.86793 6.90219 9.63256 7.15336 9.29552C7.40452 8.95849 7.52599 8.54231 7.49555 8.12309C7.46512 7.70386 7.2848 7.3096 6.98759 7.01238C6.69037 6.71516 6.2961 6.53485 5.87688 6.50441C5.45765 6.47397 5.04147 6.59544 4.70444 6.84661C4.36741 7.09777 4.13203 7.46186 4.04136 7.87229C3.95068 8.28272 4.01076 8.71208 4.2106 9.08186L1.24998 12.0437L2.4456 4.86624L5.87498 3.58061L10.4187 8.12499L9.1331 11.5544ZM4.99998 8.24999C4.99998 8.10165 5.04396 7.95665 5.12638 7.83331C5.20879 7.70997 5.32592 7.61384 5.46297 7.55708C5.60001 7.50031 5.75081 7.48546 5.8963 7.5144C6.04178 7.54334 6.17542 7.61477 6.28031 7.71966C6.3852 7.82454 6.45663 7.95818 6.48557 8.10367C6.51451 8.24915 6.49965 8.39995 6.44289 8.537C6.38612 8.67404 6.28999 8.79118 6.16666 8.87359C6.04332 8.956 5.89831 8.99999 5.74998 8.99999C5.55107 8.99999 5.3603 8.92097 5.21965 8.78032C5.079 8.63966 4.99998 8.4489 4.99998 8.24999ZM11 7.29249L6.70685 2.99999L8.20685 1.49999L12.5 5.79249L11 7.29249Z" fill="black"/>
</svg>
